<svg aria-hidden="true" style="position: absolute; width: 0; height: 0; overflow: hidden;" version="1.1" xmlns="http://www.w3.org/2000/svg" xmlns:xlink="http://www.w3.org/1999/xlink">
<defs>
<symbol id="icon-aorus" viewBox="0 0 32 32">
<path d="M9.397 13.414l0.189-0.479c0.093-0.232-0.043-0.45-0.273-0.356l-0.841 0.342-0.55 0.617-0.588-0.164 1.1-0.458-0.409-0.108c-0.030-0.007-0.064-0.011-0.099-0.011-0.060 0-0.117 0.011-0.17 0.032l0.003-0.001c-0.421 0.145-4.916 1.954-4.865 2.017 0.026 0.034 0.336-0.054 0.532 0.123-0.353 0.112-0.655 0.243-0.941 0.4l0.027-0.014c0.644-0.008 0.834 0.033 1.356 0.298-0.31 0.096-0.575 0.207-0.826 0.337l0.028-0.013c0.327 0.023 0.626 0.119 0.889 0.271l-0.010-0.005c0.023 0.649 0.014 1.408-0.071 2.061l5.255-5.22c0.144-0.142 0.238-0.135 0.242 0l0.012 0.334c0 0.017 0.006 0.012 0.011 0zM6.315 16.043l-1.932 1.968-0.104 0.463 1.416 1.041 3.229-2.635-0.38-0.544-0.964 0.203 0.627 0.249-2.11 1.118-0.313-0.204zM29.182 15.163l2.234 0.003c0.221 0 0.34-0.278 0.545-0.316 0.016-0.003 0.039-0.024 0.038-0.034h-3.146c-0.788 0-0.841 0.181-1.279 1.307-0.098 0.253-0.303 0.633-0.009 0.834 0.259 0.178 1.772-0.038 2.164 0.101 0.020 0.255-0.232 0.853-0.417 1.037l-0.196 0.051h-2.178c-0.313 0-0.232 0.219-0.566 0.309-0.016 0.007-0.028 0.022-0.029 0.040v0h3.331c0.382 0 0.667-0.181 0.782-0.467l0.341-0.845c0.077-0.191-0.029-0.53-0.432-0.528l-1.75 0.007c-0.157 0-0.148-0.154-0.104-0.264l0.423-1.055c0.041-0.102 0.134-0.174 0.245-0.184l0.001-0zM18.643 15.394c0.078-0.2 0.116-0.602-0.488-0.602h-2.304c-0.582 0-0.767 0.278-0.869 0.538l-1.005 2.584c-0.116 0.299-0.060 0.6 0.431 0.6h2.149c0.768 0 0.983-0.296 1.161-0.753zM15.088 17.85l0.988-2.484c0.070-0.175 0.171-0.201 0.359-0.201h0.941c0.205 0 0.235 0.058 0.185 0.19l-1.016 2.578c-0.055 0.139-0.105 0.206-0.312 0.206h-1.041c-0.155 0-0.186-0.089-0.105-0.292zM11.541 18.491h1.432c0.156 0 0.216-0.122 0.258-0.229l1.283-3.283c0.026-0.079 0.028-0.164-0.194-0.164h-1.597c-0.349-0.009-0.439 0.072-0.533 0.146l-3.774 3.171c-0.139 0.117-0.375 0.292-0.491 0.335-0.016 0.006-0.024 0.012-0.025 0.023h1.011c0.161 0 0.295-0.088 0.499-0.26l1.231-1.040c0.179-0.151 0.301-0.169 0.443-0.167h1.318c0.075 0 0.226 0.070 0.153 0.228l-0.311 0.679c-0.097 0.213-0.417 0.406-0.6 0.491-0.048 0.024-0.101 0.054-0.103 0.070zM11.358 16.493l1.441-1.207c0.183-0.153 0.532-0.261 0.383 0.106l-0.417 1.026c-0.087 0.195-0.117 0.218-0.27 0.217l-1.103-0.003c-0.116-0-0.124-0.063-0.034-0.139zM23.016 14.815c0 0.027 0.012 0.040 0.038 0.046 0.165 0.040 0.679 0.417 0.61 0.593l-0.934 2.368c-0.245 0.613 0.204 0.669 0.332 0.668h2.47c0.356 0 0.666-0.124 0.869-0.644l1.074-2.748c0.082-0.209 0.148-0.284-0.144-0.284h-1.728c-0.001 0.003-0.001 0.006-0.001 0.010 0 0.018 0.010 0.033 0.025 0.041l0 0c0.244 0.087 0.649 0.373 0.619 0.625l-0.973 2.467c-0.053 0.134-0.146 0.185-0.283 0.182h-1.098c-0.139 0-0.131-0.131-0.093-0.236l1.12-2.903c0.055-0.143 0.054-0.185-0.148-0.185zM21.675 15.136c0.105 0 0.173 0.083 0.136 0.179l-0.475 1.218c-0.046 0.115-0.106 0.118-0.238 0.118l-1.005 0.003c-0.224 0-0.264-0.076-0.201-0.228l0.278-0.676c0.037-0.089 0.046-0.2-0.102-0.2h-0.761c-0.109 0.012-0.165 0.031-0.232 0.202l-0.998 2.5c-0.073 0.181 0.032 0.239 0.122 0.239h0.688c0.156 0 0.212 0 0.308-0.254l0.375-0.998c0.108-0.287 0.374-0.312 0.488-0.030l0.443 1.098c0.053 0.132 0.063 0.185 0.201 0.185h1.87c-0-0.015-0.010-0.028-0.024-0.033l-0-0c-0.046-0.015-0.085-0.032-0.122-0.053l0.003 0.002-0.267-0.199c-0.112-0.065-0.127-0.073-0.228-0.073h-0.259c-0.137 0-0.167-0.070-0.222-0.2l-0.303-0.715c-0.067-0.159-0.032-0.193 0.153-0.193h0.379c0.378 0 0.652-0.189 0.794-0.568l0.441-1.112c0.083-0.211 0-0.533-0.411-0.533h-3.601c0.156 0.088 0.288 0.195 0.401 0.321l0.001 0.001z"></path>
</symbol>
<symbol id="icon-nvidia" viewBox="0 0 32 32">
<path fill="#000" style="fill: var(--color1, #000)" d="M31.594 17.626v-0.088h0.057c0.032 0 0.074 0.002 0.074 0.040 0 0.041-0.025 0.048-0.060 0.048h-0.071zM31.594 17.688h0.039l0.085 0.154h0.096l-0.096-0.16c0.050-0.004 0.092-0.028 0.092-0.095 0-0.084-0.057-0.111-0.156-0.111h-0.142v0.367h0.081v-0.154zM32.005 17.66c0-0.215-0.166-0.34-0.354-0.34s-0.354 0.125-0.354 0.34c0 0.215 0.166 0.341 0.354 0.341s0.354-0.125 0.354-0.341zM31.905 17.66c0 0.157-0.117 0.262-0.255 0.262v-0.001c-0.138 0.001-0.252-0.104-0.252-0.261s0.113-0.262 0.252-0.262c0.138 0 0.255 0.105 0.255 0.262zM19.021 14.015l0 3.865h1.092v-3.865h-1.092zM10.433 14.009v3.871h1.101v-2.939l0.853 0c0.283 0 0.484 0.070 0.62 0.216 0.172 0.184 0.243 0.481 0.243 1.023v1.7h1.067v-2.138c0-1.526-0.973-1.732-1.925-1.732h-1.96zM20.779 14.015v3.865h1.77c0.943 0 1.251-0.157 1.584-0.509 0.235-0.247 0.387-0.789 0.387-1.381 0-0.543-0.129-1.028-0.353-1.33-0.405-0.54-0.987-0.645-1.857-0.645h-1.532zM21.861 14.856h0.469c0.681 0 1.121 0.306 1.121 1.099s-0.44 1.1-1.121 1.1h-0.469v-2.199zM17.447 14.015l-0.911 3.063-0.873-3.063h-1.178l1.247 3.865h1.573l1.256-3.865h-1.114zM25.029 17.88h1.092v-3.865h-1.092v3.865zM28.089 14.016l-1.524 3.862h1.076l0.241-0.683h1.802l0.23 0.683h1.169l-1.537-3.862h-1.458zM28.797 14.721l0.66 1.809h-1.343l0.682-1.809z"></path>
<path fill="#77b900" style="fill: var(--color2, #77b900)" d="M3.442 14.774v-0.552c0.053-0.004 0.107-0.007 0.163-0.008 1.508-0.047 2.498 1.296 2.498 1.296s-1.069 1.484-2.214 1.484c-0.165 0-0.313-0.027-0.446-0.071v-1.672c0.587 0.071 0.705 0.33 1.058 0.919l0.785-0.662s-0.573-0.752-1.539-0.752c-0.105 0-0.206 0.007-0.304 0.018zM3.442 12.953v0.824c0.054-0.004 0.108-0.008 0.163-0.010 2.097-0.071 3.464 1.72 3.464 1.72s-1.569 1.909-3.205 1.909c-0.15 0-0.29-0.014-0.422-0.037v0.509c0.113 0.014 0.229 0.023 0.351 0.023 1.522 0 2.622-0.777 3.687-1.697 0.176 0.142 0.9 0.485 1.049 0.636-1.013 0.848-3.374 1.532-4.713 1.532-0.129 0-0.253-0.008-0.375-0.020v0.716h5.783v-6.105h-5.783zM3.442 16.923v0.435c-1.407-0.251-1.798-1.714-1.798-1.714s0.676-0.749 1.798-0.87v0.477c-0.001 0-0.001-0-0.002-0-0.589-0.071-1.049 0.479-1.049 0.479s0.258 0.926 1.051 1.193zM0.943 15.581s0.834-1.231 2.5-1.358v-0.446c-1.845 0.148-3.442 1.71-3.442 1.71s0.905 2.616 3.442 2.855v-0.475c-1.862-0.234-2.5-2.286-2.5-2.286z"></path>
</symbol>
<symbol id="icon-msi" viewBox="0 0 26 32">
<path fill="#fff" style="fill: var(--color3, #fff)" d="M11.64 1.167c1.235-0.004 2.47-0.001 3.705-0.001-0.284 0.28-0.548 0.579-0.833 0.857-0.858 0.005-1.716 0.001-2.574 0.002v2.094h2.112v-0.644h-0.796c-0.263-0.262-0.526-0.524-0.787-0.787 0.915-0.001 1.831 0 2.746-0.001 0 0.48-0.001 0.959 0.001 1.439-0.24 0.243-0.483 0.482-0.721 0.726-0.065 0.055-0.124 0.147-0.223 0.125-0.876 0.001-1.753 0.001-2.63 0-0.272-0.289-0.569-0.553-0.847-0.836-0.041-0.693-0.014-1.397-0.013-2.094 0.263-0.314 0.579-0.581 0.859-0.881zM8.848 2.51c0.465-0.147 0.928-0.299 1.4-0.422-0.105 0.233-0.211 0.467-0.316 0.701-0.317 0.097-0.634 0.195-0.952 0.289-0.001 0.479 0.021 0.957 0.021 1.436 0.256-0.081 0.513-0.157 0.771-0.231 0-0.145-0.001-0.289 0.001-0.433-0.102 0.026-0.203 0.052-0.304 0.077-0.102-0.153-0.203-0.307-0.298-0.463 0.339-0.107 0.682-0.205 1.026-0.301 0.017 0.34 0.038 0.681 0.015 1.021-0.077 0.234-0.199 0.45-0.296 0.676-0.342 0.094-0.682 0.196-1.021 0.302-0.107-0.178-0.266-0.331-0.337-0.527 0.001-0.476-0.045-0.954-0.012-1.429 0.081-0.24 0.198-0.466 0.301-0.697zM16.15 2.325c0.564 0.125 1.115 0.301 1.668 0.465-0.133 0.117-0.272 0.226-0.409 0.339-0.321-0.083-0.636-0.185-0.957-0.264-0.029 0.039-0.079 0.111-0.127 0.183l-0.024 0.037c0.043 0.088 0.086 0.177 0.13 0.266 0.343 0.105 0.687 0.201 1.029 0.311 0.084 0.294 0.209 0.579 0.259 0.882-0.077 0.211-0.183 0.411-0.274 0.616-0.551-0.158-1.112-0.283-1.669-0.419 0.114-0.151 0.23-0.301 0.347-0.45 0.329 0.082 0.659 0.163 0.986 0.258 0.024-0.042 0.073-0.127 0.097-0.17-0.039-0.101-0.079-0.201-0.117-0.301-0.326-0.106-0.655-0.204-0.987-0.291-0.118-0.271-0.238-0.541-0.353-0.813 0.137-0.215 0.275-0.429 0.402-0.649zM7.841 2.77c0.122-0.037 0.246-0.072 0.368-0.109 0.049 0.876 0.016 1.756 0.065 2.633-0.102 0.027-0.204 0.054-0.304 0.080-0.277-0.418-0.579-0.819-0.854-1.239 0.014 0.495-0.001 0.991 0.028 1.486-0.13 0.194-0.245 0.397-0.376 0.589-0.021-1.014-0.027-2.028-0.059-3.041 0.092-0.036 0.185-0.071 0.278-0.106 0.297 0.4 0.574 0.814 0.869 1.216 0.020-0.503-0.027-1.005-0.014-1.508zM18.048 2.854c0.577 0.185 1.149 0.385 1.712 0.611-0.142 0.103-0.284 0.206-0.425 0.309-0.282-0.099-0.562-0.204-0.846-0.299-0.016 0.174-0.026 0.349-0.040 0.523 0.379 0.135 0.758 0.273 1.132 0.425-0.17 0.112-0.312 0.274-0.502 0.346-0.223-0.064-0.436-0.161-0.658-0.23-0.010 0.142-0.019 0.284-0.023 0.427 0.391 0.11 0.769 0.261 1.154 0.389-0.2 0.11-0.382 0.424-0.639 0.295-0.333-0.112-0.669-0.215-1.006-0.314 0.041-0.827 0.098-1.654 0.14-2.481zM5.995 3.455c-0.024 0.002 0.113-0.052 0.25-0.105l0.163-0.055c-0.001 0.867 0.043 1.733 0.034 2.599-0.132 0.191-0.258 0.387-0.392 0.576-0.008-1.005-0.025-2.011-0.056-3.016zM20.033 3.555c0.439 0.166 0.863 0.372 1.282 0.584 0.064 0.253 0.13 0.506 0.198 0.76-0.092 0.139-0.182 0.279-0.272 0.418 0.081 0.154 0.18 0.299 0.246 0.461 0.006 0.267-0.026 0.533-0.029 0.8-0.126-0.060-0.252-0.118-0.377-0.178 0.009-0.243 0.098-0.514-0.067-0.727-0.1-0.284-0.419-0.332-0.657-0.45-0.025 0.271-0.016 0.542-0.029 0.813-0.102 0.193-0.268 0.342-0.398 0.516 0.029-0.999 0.081-1.997 0.105-2.996zM20.39 4.18c-0.001 0.166-0.014 0.332-0.018 0.498 0.204 0.131 0.44 0.205 0.662 0.306 0.026-0.094 0.107-0.183 0.071-0.285-0.048-0.345-0.463-0.377-0.715-0.518zM5.258 3.782c0.135-0.061 0.27-0.121 0.407-0.176 0.018 0.847 0.018 1.694 0.048 2.541-0.372 0.147-0.498 0.201-0.623 0.256l0.242-0.095c0.004-0.517 0.009-1.035-0.045-1.55-0.080 0.482-0.245 0.944-0.361 1.417-0.214 0.101-0.292 0.141-0.369 0.182l0.132-0.062c-0.144-0.326-0.264-0.662-0.425-0.98-0.029 0.503 0.052 1.009-0.002 1.511-0.097 0.2-0.217 0.389-0.324 0.584-0.029-0.957-0.043-1.916-0.049-2.873 0.104-0.11 0.261-0.16 0.389-0.241 0.178 0.391 0.345 0.788 0.503 1.187 0.184-0.559 0.311-1.136 0.478-1.7zM21.859 4.413c0.13 0.067 0.259 0.134 0.391 0.199-0.006 0.759-0.069 1.516-0.072 2.275-0.129 0.114-0.27 0.223-0.417 0.322l-0.014 0.009c0.031-0.935 0.062-1.872 0.113-2.806zM2.417 5.312c0.273-0.205 0.569-0.377 0.86-0.554 0.108 0.184 0.315 0.342 0.286 0.577-0.013 0.57 0.026 1.138 0.019 1.708-0.119 0.067-0.238 0.132-0.357 0.199-0.004-0.228-0.020-0.456-0.026-0.684-0.228 0.133-0.458 0.264-0.68 0.408 0.013 0.221 0.042 0.443 0.012 0.663-0.093 0.223-0.228 0.427-0.349 0.635 0.004-0.74-0.029-1.479-0.031-2.217 0.067-0.251 0.149-0.504 0.266-0.735zM2.5 5.814c0.009 0.198 0.022 0.396 0.026 0.595 0.221-0.146 0.45-0.281 0.679-0.415-0.019-0.204-0.022-0.409-0.021-0.614-0.23 0.143-0.46 0.283-0.684 0.433zM22.609 4.79c0.498 0.22 0.98 0.473 1.462 0.725-0.16 0.075-0.313 0.192-0.489 0.214-0.211-0.090-0.41-0.203-0.615-0.304-0.012 0.155-0.021 0.31-0.024 0.466 0.33 0.131 0.644 0.299 0.975 0.43-0.178 0.104-0.357 0.204-0.541 0.296-0.148-0.072-0.299-0.138-0.45-0.203-0.008 0.117-0.014 0.234-0.019 0.351 0.337 0.145 0.674 0.292 0.999 0.462-0.159 0.080-0.318 0.158-0.477 0.238-0.301-0.14-0.609-0.265-0.916-0.389 0.043-0.762 0.061-1.524 0.094-2.286zM24.372 5.634c0.387 0.206 0.772 0.418 1.142 0.654-0.126 0.076-0.25 0.154-0.373 0.233-0.202-0.11-0.397-0.233-0.608-0.326-0.029 0.126-0.011 0.254 0.024 0.377 0.278 0.119 0.552 0.246 0.82 0.384 0.045 0.23 0.097 0.46 0.146 0.691-0.097 0.193-0.193 0.386-0.291 0.578-0.38-0.195-0.769-0.37-1.154-0.554 0.135-0.091 0.271-0.181 0.411-0.266 0.22 0.104 0.438 0.212 0.657 0.318 0.042-0.122 0.012-0.246-0.018-0.365-0.274-0.14-0.556-0.264-0.838-0.387-0.055-0.208-0.122-0.415-0.16-0.627 0.062-0.242 0.166-0.47 0.24-0.708zM0.869 6.327c0.319-0.261 0.685-0.462 1.038-0.676-0.128 0.268-0.108 0.662-0.41 0.807-0.18 0.106-0.355 0.22-0.531 0.332-0.001 0.415 0.037 0.828 0.013 1.243 0.185-0.116 0.383-0.213 0.563-0.337 0.003-0.044 0.004-0.095 0.004-0.147 0-0.075-0.003-0.149-0.010-0.223l0.001 0.009c-0.052 0.026-0.155 0.081-0.207 0.108-0.077-0.12-0.154-0.24-0.23-0.359 0.256-0.159 0.513-0.319 0.779-0.461-0.006 0.311 0.012 0.624-0.007 0.935-0.051 0.219-0.145 0.425-0.215 0.639-0.256 0.135-0.505 0.284-0.759 0.424-0.090-0.16-0.249-0.302-0.242-0.499-0.010-0.185-0.015-0.401-0.015-0.619 0-0.184 0.004-0.367 0.012-0.549l-0.001 0.026c0.056-0.223 0.128-0.443 0.217-0.654zM12.548 6.46c0.132 0.115 0.232 0.259 0.341 0.394 0.75 0.911 1.677 1.691 2.751 2.192 0.335 0.159 0.69 0.29 1.063 0.317 0.296 0.025 0.563-0.167 0.861-0.136 0.249 0.023 0.498 0.12 0.688 0.286 0.101 0.271 0.118 0.588 0.336 0.801 0.163 0.194 0.435 0.19 0.664 0.147 0.054 0.155 0.13 0.343 0.317 0.367 0.175 0.004 0.334-0.097 0.503-0.141 0.11 0.154 0.183 0.356 0.372 0.432 0.369 0.178 0.66 0.5 0.828 0.871-0.216-0.24-0.438-0.484-0.739-0.619-0.009 0.466 0.055 1.012-0.294 1.381-0.013-0.296-0.043-0.594-0.173-0.864-0.266 0.218-0.518 0.488-0.871 0.555 0.107-0.146 0.264-0.269 0.312-0.451 0.027-0.14-0.138-0.165-0.236-0.186-0.416-0.064-0.77 0.201-1.099 0.413-0.052-0.147-0.104-0.293-0.154-0.44-0.212 0.067-0.457 0.112-0.601 0.299-0.088 0.163 0.082 0.297 0.21 0.364 0.219 0.125 0.478 0.033 0.714 0.084 0.152 0.036 0.246 0.173 0.345 0.284 0.006-0.112 0.014-0.224 0.024-0.336 0.273 0.302 0.5 0.642 0.707 0.993 0.266-0.126 0.404-0.389 0.383-0.681 0.107 0.193 0.112 0.414 0.105 0.629 0.069-0.084 0.136-0.159 0.206-0.231l-0.001 0.001c0.034 0.322 0.041 0.668-0.11 0.964-0.12 0.23-0.345 0.382-0.585 0.468 0.052-0.189 0.163-0.495-0.098-0.578-0.454-0.088-0.897 0.107-1.347 0.142 0.254-0.142 0.548-0.271 0.7-0.535-0.011-0.032-0.034-0.097-0.044-0.13-0.24-0.147-0.523-0.21-0.783-0.315-0.152-0.074-0.294 0.035-0.432 0.086-0.26-0.145-0.588-0.168-0.848-0.011-0.649 0.447-1.745-0.196-1.577-0.996 0.115-0.435 0.584-0.586 0.947-0.759-0.332-0.072-0.72-0.012-0.954 0.251-0.192 0.2-0.264 0.477-0.312 0.742-1.239-0.367-2.57-0.432-3.839-0.193-1.237 0.23-2.414 0.843-3.252 1.791-0.857 0.957-1.379 2.178-1.639 3.427-0.313 1.494-0.078 3.087 0.628 4.438 0.18 0.374 0.418 0.715 0.636 1.067-1.047-0.856-1.763-2.053-2.244-3.303-0.155 0.179-0.142 0.425-0.178 0.644-0.34-0.52-0.287-1.178-0.193-1.763 0.204-1.065 0.564-2.095 1.004-3.085-0.367 0.213-0.635 0.547-0.936 0.836-0.012-1.068 0.609-1.986 1.246-2.789 0.391-0.494 0.854-0.923 1.304-1.363-0.365 0.099-0.705 0.266-1.059 0.397 0.737-0.761 1.7-1.273 2.693-1.621 0.967-0.326 1.985-0.508 3.006-0.535-0.548-0.125-1.106-0.225-1.669-0.243l-0.1 0.070c-0.002-0.040-0.007-0.088 0.044-0.098 1.038-0.257 2.129-0.319 3.128-0.725 0.243-0.097 0.469-0.235 0.672-0.399 0.427 0.289 0.874 0.643 1.416 0.639-0.845-0.678-1.694-1.385-2.295-2.298-0.203-0.295-0.397-0.603-0.493-0.951zM17.277 9.914c0.221 0.296 0.492 0.639 0.91 0.586-0.055-0.15-0.075-0.332-0.21-0.435-0.232-0.057-0.472-0.080-0.7-0.15z"></path>
<path fill="#fff" style="fill: var(--color3, #fff)" d="M11.662 7.78c0.693 0.368 1.325 0.847 2.044 1.172-0.174 0.14-0.395 0.396-0.636 0.235-0.561-0.363-0.996-0.889-1.408-1.407zM3.449 10.951c0.553-0.2 1.233 0.245 1.249 0.836-0.057 0.006-0.17 0.016-0.226 0.022-0.027 0.44 0.172 0.859 0.404 1.22 0.027-0.397-0.044-0.82 0.156-1.185 0.134 0.006 0.261 0.044 0.376 0.114 0.155-0.095 0.121-0.304 0.029-0.433-0.105-0.142-0.238-0.259-0.346-0.397 0.277 0.168 0.56 0.359 0.738 0.636 0.105 0.187 0.131 0.468-0.038 0.627-0.112 0.122-0.352-0.006-0.422 0.171-0.127 0.253-0.081 0.556 0.028 0.808 0.273-0.054 0.465-0.266 0.713-0.372-0.484 0.499-0.944 1.035-1.216 1.684-0.004-0.193 0.089-0.425-0.046-0.591-0.259-0.238-0.649-0.22-0.931-0.418-0.165-0.12-0.259-0.308-0.395-0.454-0.112-0.112-0.333-0.066-0.408-0.217-0.034-0.251-0.009-0.555-0.22-0.739-0.223-0.18-0.533-0.145-0.801-0.17 0.442-0.236 1.026-0.112 1.355 0.259 0.155 0.174 0.136 0.453 0.332 0.598 0.203 0.142 0.417 0.285 0.664 0.341 0.058-0.349-0.268-0.558-0.373-0.857-0.124-0.308-0.183-0.682-0.009-0.983 0.037-0.098 0.149-0.223 0.027-0.306-0.176-0.15-0.426-0.141-0.639-0.195zM9.951 12.983c0.057-0.023 0.13-0.047 0.204-0.067l0.014-0.003c-0.529 0.485-0.909 1.097-1.33 1.672-0.142 0.211-0.329 0.435-0.281 0.709 0.005 0.084 0.039 0.241 0.158 0.178 0.261-0.137 0.407-0.407 0.592-0.626 0.126 0.407 0.511 0.649 0.892 0.783 0.652 0.242 1.357 0.156 2.029 0.072 1.287-0.18 2.608-0.506 3.675-1.282 0.294-0.197 0.495-0.497 0.772-0.712-0.070 0.326-0.308 0.578-0.528 0.814-0.758 0.739-1.761 1.166-2.771 1.436-0.969 0.254-1.972 0.362-2.971 0.394-0.233 0.024-0.494 0.035-0.682 0.191-0.127 0.1-0.009 0.26 0.089 0.329 0.352 0.253 0.75 0.44 1.161 0.576 1.022 0.353 2.136 0.198 3.152-0.097 0.699-0.198 1.347-0.531 1.995-0.85-0.787 0.729-1.821 1.142-2.864 1.336-1.415 0.24-2.883 0.037-4.222-0.456-0.145-0.045-0.369-0.085-0.451 0.083-0.107 0.26 0.12 0.485 0.222 0.706 0.402 0.789 0.93 1.558 1.706 2.018 0.299 0.187 0.637 0.291 0.974 0.385-0.563 0.019-1.091-0.23-1.57-0.5-0.967-0.566-1.603-1.55-2.002-2.574 0.073 1.355 0.927 2.525 1.912 3.395 0.005 0.154-0.18 0.156-0.289 0.194-0.45 0.117-0.987 0.11-1.336 0.455-0.306 0.519-0.307 1.168-0.642 1.676-0.604-1.050-0.985-2.222-1.163-3.419-0.223-1.553 0.092-3.183 0.929-4.516 0.626-1.002 1.557-1.802 2.625-2.302z"></path>
<path fill="#fff" style="fill: var(--color3, #fff)" d="M16.173 15.549c0.347-0.192 0.643-0.458 0.965-0.686-0.082 0.213-0.273 0.352-0.434 0.503-1.431 1.287-3.41 1.81-5.302 1.771-0.351-0.025-0.751-0.030-1.030-0.274-0.062-0.183 0.189-0.206 0.31-0.198 1.877 0.085 3.847-0.143 5.491-1.116zM15.478 17.509c0.662-0.057 1.355 0.045 1.952 0.346 0.576 0.288 1.014 0.818 1.211 1.43-0.357-0.31-0.894-0.425-1.347-0.306-0.021 0.145 0.023 0.282 0.094 0.408-0.613 0.073-1.249-0.16-1.619-0.665 0.269 0.122 0.549 0.287 0.857 0.227 0.243-0.049 0.505-0.154 0.639-0.376 0.089-0.17-0.082-0.319-0.203-0.411-0.478-0.324-1.042-0.479-1.586-0.653zM9.079 17.694c0.126 0.015 0.277 0.006 0.362 0.122 0.561 0.717 1.457 1.071 2.328 1.227 0.664 0.136 1.345 0.151 2.020 0.132-1.112 0.284-2.33 0.23-3.391-0.226-0.475-0.204-0.92-0.51-1.225-0.933-0.072-0.092-0.072-0.214-0.095-0.322z"></path>
<path fill="#fff" style="fill: var(--color3, #fff)" d="M15.444 19.193c-0.203-0.329-0.273-0.747-0.175-1.121 0.067 0.428 0.221 0.871 0.571 1.15 0.433 0.354 1.026 0.428 1.567 0.385 0.765-0.075 1.532-0.215 2.303-0.152 0.359 0.037 0.659 0.281 0.828 0.591 0.151 0.284 0.305 0.576 0.382 0.89 0.063 0.38-0.261 0.657-0.341 1.006-0.149 0.592-0.147 1.222-0.388 1.791-0.14 0.335-0.454 0.55-0.642 0.853-0.357 0.564-0.527 1.219-0.664 1.866-0.065 0.303-0.189 0.622-0.467 0.791-0.499 0.308-1.112 0.329-1.631 0.591-0.502 0.232-0.897 0.626-1.335 0.952-0.344 0.256-0.807 0.261-1.201 0.13-0.321-0.109-0.666-0.174-1-0.082-0.301 0.031-0.582 0.24-0.889 0.16-0.39-0.119-0.425-0.621-0.77-0.797-0.35-0.176-0.75-0.178-1.128-0.247-0.175-0.029-0.355-0.12-0.434-0.287-0.103-0.241-0.092-0.52-0.222-0.75-0.312-0.488-0.985-0.588-1.268-1.103-0.14-0.243-0.102-0.535-0.008-0.787 0.1-0.273 0.128-0.616-0.075-0.851-0.227-0.249-0.586-0.294-0.904-0.32 0.34-0.467 0.533-1.020 0.653-1.58 0.065-0.332 0.256-0.67 0.604-0.765 0.474-0.132 1.039-0.326 1.494-0.042 0.528 0.417 0.44 1.299-0.009 1.743-0.316 0.248-0.794 0.33-1.157 0.14-0.221-0.12-0.246-0.394-0.21-0.616 0.155 0.106 0.27 0.284 0.467 0.319 0.156-0.039 0.385-0.126 0.379-0.318-0.099-0.277-0.44-0.471-0.721-0.339-0.312 0.149-0.633 0.408-0.679 0.773 0.008 0.409 0.438 0.631 0.802 0.641 0.598 0.003 1.118-0.359 1.537-0.753-0.081 1.153-0.011 2.369 0.533 3.412 0.27 0.531 0.788 0.903 1.365 1.035 1.158 0.274 2.372 0.076 3.485-0.301 0.669-0.221 1.318-0.532 1.857-0.992 0.267-0.243 0.468-0.547 0.664-0.848 0.522-0.831 0.931-1.731 1.257-2.656 0.218-0.668 0.379-1.426 0.093-2.099-0.195-0.463-0.712-0.657-1.176-0.715-0.585-0.095-1.166 0.137-1.75 0.047-0.116 0.199-0.11 0.491 0.112 0.614 0.388 0.213 0.851 0.159 1.277 0.185-0.792 0.316-1.724 0.442-2.522 0.078-0.708-0.302-1.246-0.936-1.485-1.661 0.334 0.484 0.682 1.020 1.257 1.238 0.273 0.089 0.619 0.155 0.866-0.029 0.16-0.163-0.019-0.37-0.1-0.523-0.393-0.095-0.782-0.295-1.001-0.646zM20.784 20.151c0.12-0.088 0.264-0.132 0.401-0.187-0.057 0.132-0.11 0.296-0.266 0.337-0.105 0.010-0.15-0.040-0.135-0.15zM20.718 22.016c0.231-0.090 0.483-0.017 0.725-0.049-0.176 0.184-0.447 0.374-0.709 0.251-0.001 0.006-0.006-0.064-0.012-0.134l-0.004-0.068z"></path>
<path fill="#fff" style="fill: var(--color3, #fff)" d="M11.759 22.731c0.327-0.253 0.761-0.31 1.163-0.328-0.299 0.101-0.661 0.174-0.795 0.501 0.118 0.16 0.419 0.058 0.473 0.263 0.008 0.432-0.34 0.742-0.47 1.128 0.354-0.244 0.756-0.47 0.982-0.85 0.062-0.117-0.121-0.155-0.173-0.224 0.186-0.301 0.562-0.409 0.898-0.401 0.256-0.008 0.535 0.077 0.688 0.296-0.249-0.057-0.521-0.256-0.772-0.107-0.062 0.173-0.024 0.369-0.097 0.543-0.151 0.421-0.54 0.704-0.944 0.859-0.145 0.059-0.344 0.188-0.291 0.37 0.253 0.015 0.511 0.044 0.764 0.005 0.271-0.042 0.398-0.341 0.663-0.395 0.48-0.13 1.057 0.069 1.306 0.513-0.256-0.124-0.511-0.338-0.813-0.279-0.299 0.065-0.423 0.373-0.602 0.585-0.162 0.042-0.32-0.057-0.482-0.034-0.217 0.049-0.408 0.181-0.632 0.203-0.389 0.042-0.755-0.213-1.146-0.123-0.209 0.065-0.196 0.319-0.214 0.496-0.233-0.697-0.333-1.443-0.266-2.176 0.169 0.171 0.165 0.415 0.217 0.634 0.031 0.14 0.204 0.143 0.299 0.066 0.25-0.185 0.41-0.496 0.389-0.81-0.316-0.092-0.393-0.529-0.145-0.735zM7.728 24.291c0.203-0.167 0.599-0.044 0.611 0.238 0.027 0.193 0.018 0.443-0.188 0.536-0.443 0.241-1.030 0.347-1.264 0.849 0.049-0.622 0.305-1.267 0.841-1.623zM19.421 25.043c0.089-0.182 0.326-0.143 0.471-0.058 0.185 0.104 0.382 0.183 0.599 0.183-0.269 0.167-0.604 0.301-0.921 0.202-0.135-0.038-0.248-0.198-0.149-0.327zM9.357 26.845c0.242-0.084 0.508 0.137 0.447 0.393 0.008 0.196-0.158 0.312-0.324 0.369-0.371 0.155-0.815 0.264-1.021 0.646 0.033-0.58 0.37-1.149 0.897-1.408zM16.587 28.381c-0.098-0.216 0.092-0.465 0.324-0.395 0.244 0.055 0.228 0.343 0.259 0.538 0.019 0.226 0.115 0.432 0.232 0.621-0.36-0.126-0.657-0.422-0.815-0.764zM10.935 28.419c0.125-0.156 0.339-0.226 0.534-0.18 0.241 0.131 0.293 0.548 0.044 0.7-0.344 0.267-0.843 0.427-0.962 0.896-0.034-0.494 0.065-1.023 0.383-1.415zM13.504 29.005c0.274-0.183 0.658 0.17 0.47 0.454-0.249 0.325-0.676 0.517-0.778 0.947-0.082-0.474-0.043-1.038 0.309-1.401z"></path>
<path fill="#000" style="fill: var(--color1, #000)" d="M12.75 0.026c0.228-0.042 0.46-0.024 0.691-0.011l0.003 0.052c0.086 0.008 0.173 0.017 0.26 0.028 0.475 0.132 0.957 0.236 1.434 0.362 0.331 0.106 0.667 0.19 1 0.292 0.073 0.024 0.146 0.047 0.22 0.069 0.007 0.005 0.077 0.029 0.148 0.051l0.064 0.018c0.289 0.088 0.571 0.196 0.859 0.286 0.069 0.026 0.138 0.052 0.208 0.077 0.073 0.025 0.146 0.049 0.22 0.074 0.115 0.053 0.233 0.1 0.357 0.13 0.117 0.055 0.238 0.106 0.362 0.149 0.070 0.024 0.141 0.049 0.213 0.074 0.161 0.082 0.331 0.147 0.501 0.21 0.114 0.058 0.233 0.109 0.359 0.145 0.204 0.113 0.425 0.193 0.636 0.291 0.042 0.015 0.127 0.046 0.169 0.061l0.016 0.038c0.311 0.104 0.588 0.281 0.894 0.397 0.036 0.019 0.107 0.057 0.143 0.075s0.107 0.054 0.142 0.072c0.211 0.097 0.259 0.121 0.307 0.145l-0.161-0.074c0.094 0.050 0.191 0.094 0.291 0.133 0.091 0.054 0.185 0.105 0.281 0.152 0.036 0.019 0.107 0.055 0.143 0.074 0.036 0.016 0.108 0.048 0.144 0.064 0.304 0.177 0.619 0.337 0.931 0.501 0.16 0.105 0.331 0.195 0.501 0.283 0.159 0.105 0.394 0.247 0.633 0.384l0.087 0.046c0.189 0.122 0.375 0.248 0.571 0.358 0.232 0.186 0.514 0.301 0.737 0.498 0.032 0.984 0.002 1.971-0.016 2.956-0.056 0.565-0.097 1.132-0.132 1.698-0.069-0.032-0.101-0.049-0.134-0.066l0.034 0.016c-2.23-1.16-4.554-2.14-6.931-2.956-1.615-0.553-3.281-0.928-4.948-1.282-0.311-0.058-0.617-0.147-0.934-0.162-0.346 0.013-0.685 0.090-1.023 0.157-1.516 0.328-3.027 0.689-4.507 1.156-1.519 0.475-2.999 1.061-4.457 1.695-0.964 0.453-1.945 0.879-2.868 1.413-0.005-0.084-0.023-0.162-0.051-0.235l0.002 0.005c-0.022-0.381-0.006-0.768-0.072-1.144-0.041-0.404 0.020-0.828-0.074-1.221-0.005-0.508-0.007-1.015 0.001-1.522 0.073-0.158 0.032-0.337 0.039-0.506 0.394-0.26 0.783-0.528 1.181-0.785 0.656-0.402 1.329-0.777 2.006-1.143 0.193-0.090 0.379-0.193 0.569-0.289 0.037-0.018 0.109-0.054 0.145-0.072 0.231-0.132 0.476-0.239 0.715-0.357 0.129-0.065 0.256-0.135 0.395-0.178l0.016-0.060c0.032 0.004 0.095 0.011 0.125 0.015l0.016-0.066c0.274-0.067 0.505-0.242 0.775-0.319l0.014-0.040c0.232-0.064 0.449-0.173 0.664-0.279 0.125-0.035 0.247-0.082 0.36-0.147 0.138-0.040 0.256-0.089 0.368-0.148l-0.011 0.005c0.122-0.037 0.243-0.082 0.358-0.139 0.263-0.095 0.528-0.183 0.786-0.29 0.16-0.049 0.231-0.073 0.301-0.098l-0.088 0.027c0.355-0.127 0.715-0.241 1.075-0.358 0.137-0.038 0.21-0.060 0.282-0.083l-0.064 0.018c0.332-0.102 0.669-0.189 1.002-0.291 0.095-0.021 0.193-0.040 0.286-0.071 0.19-0.051 0.384-0.090 0.575-0.143 0.097-0.019 0.192-0.041 0.286-0.071 0.094-0.022 0.189-0.044 0.284-0.069 0.095-0.024 0.195-0.045 0.289-0.080zM11.64 1.167c-0.28 0.3-0.596 0.568-0.859 0.881-0.001 0.697-0.028 1.401 0.013 2.094 0.278 0.282 0.575 0.546 0.847 0.836 0.876 0.001 1.753 0.001 2.63 0 0.1 0.022 0.158-0.070 0.223-0.125 0.238-0.244 0.481-0.483 0.721-0.726-0.001-0.48-0.001-0.959-0.001-1.439-0.916 0.001-1.831-0.001-2.746 0.001 0.261 0.263 0.524 0.525 0.787 0.787h0.796v0.644h-2.112v-2.094c0.858-0.001 1.716 0.003 2.574-0.002 0.285-0.279 0.549-0.577 0.833-0.857-1.235 0.001-2.47-0.002-3.705 0.001zM8.848 2.51c-0.102 0.231-0.22 0.457-0.301 0.697-0.033 0.475 0.013 0.953 0.012 1.429 0.070 0.196 0.23 0.349 0.336 0.527 0.339-0.106 0.679-0.208 1.021-0.302 0.097-0.226 0.22-0.442 0.296-0.676 0.023-0.34 0.001-0.681-0.015-1.021-0.344 0.096-0.687 0.194-1.026 0.301 0.095 0.156 0.196 0.31 0.298 0.463 0.101-0.026 0.202-0.052 0.304-0.077-0.001 0.144-0.001 0.289-0.001 0.433-0.259 0.074-0.516 0.15-0.771 0.231-0.001-0.479-0.023-0.957-0.021-1.436 0.318-0.095 0.634-0.192 0.952-0.289 0.105-0.234 0.21-0.468 0.316-0.701-0.472 0.122-0.935 0.275-1.4 0.422zM16.15 2.325c-0.127 0.221-0.266 0.435-0.402 0.649 0.115 0.272 0.235 0.543 0.353 0.813 0.331 0.087 0.66 0.185 0.987 0.291 0.038 0.099 0.078 0.2 0.117 0.301-0.024 0.042-0.073 0.127-0.097 0.17-0.327-0.095-0.657-0.176-0.986-0.258-0.117 0.15-0.233 0.299-0.347 0.45 0.557 0.136 1.118 0.261 1.669 0.419 0.091-0.205 0.197-0.405 0.274-0.616-0.049-0.303-0.175-0.588-0.259-0.882-0.342-0.11-0.686-0.207-1.029-0.311-0.044-0.089-0.087-0.178-0.13-0.266 0.074-0.112 0.124-0.184 0.174-0.255l-0.023 0.034c0.322 0.079 0.637 0.181 0.957 0.264 0.137-0.112 0.276-0.222 0.409-0.339-0.553-0.164-1.104-0.34-1.667-0.465zM7.841 2.77c-0.013 0.503 0.034 1.005 0.014 1.508-0.294-0.402-0.571-0.816-0.869-1.216-0.323 0.114-0.415 0.15-0.507 0.186l0.229-0.080c0.033 1.013 0.038 2.027 0.059 3.041 0.131-0.192 0.246-0.394 0.376-0.589-0.029-0.495-0.014-0.99-0.028-1.486 0.275 0.42 0.577 0.821 0.854 1.239 0.1-0.026 0.202-0.053 0.304-0.080-0.049-0.877-0.016-1.756-0.065-2.633-0.122 0.037-0.246 0.072-0.368 0.109zM18.048 2.854c-0.042 0.827-0.099 1.654-0.14 2.481 0.337 0.099 0.673 0.203 1.006 0.314 0.257 0.129 0.439-0.185 0.639-0.295-0.385-0.128-0.763-0.279-1.154-0.389 0.004-0.142 0.013-0.284 0.023-0.427 0.222 0.069 0.435 0.166 0.658 0.23 0.19-0.072 0.332-0.234 0.502-0.346-0.374-0.152-0.753-0.29-1.132-0.425 0.014-0.174 0.024-0.349 0.040-0.523 0.284 0.094 0.563 0.2 0.846 0.299 0.141-0.103 0.283-0.206 0.425-0.309-0.563-0.225-1.135-0.426-1.712-0.611zM5.995 3.455c0.031 1.004 0.048 2.010 0.056 3.016 0.134-0.19 0.26-0.385 0.392-0.576 0.009-0.866-0.036-1.732-0.034-2.599-0.3 0.108-0.437 0.162-0.573 0.217l0.16-0.057zM20.033 3.555c-0.024 0.999-0.075 1.997-0.105 2.996 0.13-0.175 0.296-0.324 0.398-0.516 0.013-0.271 0.004-0.542 0.029-0.813 0.238 0.118 0.558 0.166 0.657 0.45 0.165 0.213 0.076 0.484 0.067 0.727 0.125 0.059 0.251 0.117 0.377 0.178 0.004-0.267 0.036-0.533 0.029-0.8-0.066-0.162-0.165-0.307-0.246-0.461 0.090-0.14 0.18-0.279 0.272-0.418 0.047 0.247-0.021-0.008-0.087-0.263l-0.11-0.497c-0.419-0.212-0.843-0.417-1.282-0.584zM5.258 3.782c-0.167 0.564-0.294 1.141-0.478 1.7-0.158-0.399-0.324-0.796-0.503-1.187-0.128 0.080-0.285 0.13-0.389 0.241 0.006 0.957 0.020 1.916 0.049 2.873 0.107-0.195 0.226-0.384 0.324-0.584 0.054-0.502-0.027-1.007 0.002-1.511 0.16 0.318 0.281 0.654 0.425 0.98-0.050 0.020 0.027-0.020 0.106-0.059l0.132-0.060c0.116-0.473 0.281-0.935 0.361-1.417 0.054 0.515 0.049 1.033 0.045 1.55 0.127-0.054 0.253-0.108 0.381-0.161-0.030-0.847-0.030-1.694-0.048-2.541-0.137 0.055-0.273 0.115-0.407 0.176zM21.859 4.413c-0.052 0.934-0.082 1.871-0.113 2.806 0.162-0.108 0.303-0.217 0.436-0.335l-0.004 0.004c0.003-0.759 0.067-1.516 0.072-2.275-0.132-0.065-0.261-0.132-0.391-0.199zM2.417 5.312c-0.117 0.231-0.199 0.485-0.266 0.735 0.002 0.738 0.034 1.478 0.031 2.217 0.121-0.208 0.256-0.412 0.349-0.635 0.030-0.22 0.001-0.442-0.012-0.663 0.222-0.144 0.452-0.275 0.68-0.408 0.006 0.228 0.021 0.455 0.026 0.684 0.118-0.067 0.238-0.132 0.357-0.199 0.007-0.57-0.031-1.138-0.019-1.708 0.029-0.236-0.178-0.393-0.286-0.577-0.291 0.178-0.587 0.349-0.86 0.554zM22.609 4.79c-0.033 0.762-0.051 1.524-0.094 2.286 0.308 0.124 0.615 0.249 0.916 0.389 0.159-0.080 0.318-0.159 0.477-0.238-0.325-0.17-0.662-0.317-0.999-0.462 0.005-0.117 0.011-0.234 0.019-0.351 0.15 0.065 0.301 0.131 0.45 0.203 0.183-0.092 0.363-0.193 0.541-0.296-0.331-0.131-0.645-0.299-0.975-0.43 0.002-0.156 0.011-0.311 0.024-0.466 0.205 0.101 0.405 0.213 0.615 0.304 0.176-0.022 0.329-0.139 0.489-0.214-0.483-0.251-0.964-0.505-1.462-0.725zM24.372 5.634c-0.074 0.238-0.178 0.466-0.24 0.708 0.037 0.213 0.105 0.419 0.16 0.627 0.281 0.123 0.564 0.248 0.838 0.387 0.030 0.12 0.060 0.243 0.018 0.365-0.219-0.106-0.437-0.214-0.657-0.318-0.14 0.085-0.276 0.175-0.411 0.266 0.385 0.184 0.774 0.359 1.153 0.554 0.098-0.193 0.194-0.385 0.291-0.578-0.049-0.231-0.101-0.46-0.146-0.691-0.268-0.138-0.543-0.265-0.82-0.384-0.035-0.123-0.052-0.251-0.024-0.377 0.211 0.094 0.406 0.216 0.608 0.326 0.123-0.079 0.247-0.157 0.373-0.233-0.37-0.236-0.755-0.447-1.142-0.654zM0.869 6.327c-0.089 0.211-0.161 0.431-0.217 0.654-0.007 0.156-0.011 0.339-0.011 0.523 0 0.218 0.005 0.434 0.016 0.649l-0.001-0.030c-0.007 0.197 0.152 0.339 0.242 0.499 0.254-0.14 0.503-0.289 0.759-0.424 0.069-0.214 0.164-0.42 0.215-0.639 0.019-0.311 0.001-0.624 0.007-0.935-0.266 0.142-0.523 0.302-0.779 0.461 0.076 0.12 0.153 0.239 0.23 0.359 0.052-0.027 0.155-0.082 0.207-0.108 0.006 0.064 0.009 0.138 0.009 0.213 0 0.052-0.002 0.103-0.005 0.154l0-0.007c-0.18 0.124-0.378 0.221-0.563 0.337 0.024-0.415-0.014-0.828-0.013-1.243 0.176-0.112 0.352-0.226 0.531-0.332 0.301-0.145 0.281-0.539 0.41-0.807-0.352 0.214-0.719 0.415-1.038 0.676z"></path>
<path fill="#000" style="fill: var(--color1, #000)" d="M20.39 4.18c0.252 0.141 0.667 0.173 0.715 0.518 0.037 0.102-0.045 0.191-0.071 0.285-0.221-0.1-0.457-0.175-0.662-0.306 0.004-0.166 0.017-0.332 0.018-0.498zM2.5 5.814c0.224-0.15 0.455-0.291 0.684-0.433-0.001 0.205 0.002 0.41 0.021 0.614-0.229 0.133-0.457 0.268-0.679 0.415-0.004-0.199-0.018-0.397-0.026-0.595z"></path>
<path fill="#ed1c24" style="fill: var(--color4, #ed1c24)" d="M12.029 5.894c0.338-0.067 0.677-0.144 1.023-0.157 0.316 0.014 0.623 0.104 0.934 0.162 1.667 0.354 3.334 0.729 4.948 1.282 2.378 0.816 4.701 1.796 6.931 2.956 0.077 0.073 0.090 0.183 0.097 0.284-0.105 0.224-0.059 0.478-0.084 0.717-0.080 0.182-0.054 0.385-0.072 0.578-0.078 0.351-0.117 0.713-0.144 1.073-0.060 0.137-0.061 0.287-0.074 0.434-0.1 0.547-0.201 1.095-0.289 1.644-0.081 0.333-0.152 0.668-0.216 1.005-0.142 0.574-0.28 1.148-0.429 1.721-0.057 0.165-0.102 0.333-0.143 0.501-0.097 0.31-0.196 0.62-0.289 0.931-0.023 0.072-0.046 0.144-0.067 0.216-0.124 0.331-0.238 0.667-0.357 1 0.019-0.065-0.008 0.005-0.034 0.075l-0.044 0.136c-0.053 0.118-0.099 0.24-0.14 0.363-0.051 0.099-0.1 0.217-0.139 0.339l-0.005 0.017c-0.1 0.213-0.192 0.431-0.282 0.649-0.997 2.187-2.251 4.283-3.914 6.030-1.297 1.393-2.839 2.558-4.538 3.417-0.037 0.017-0.109 0.052-0.145 0.070s-0.106 0.055-0.142 0.074c-0.266 0.112-0.522 0.245-0.788 0.357-0.156 0.054-0.275 0.102-0.391 0.154l0.032-0.013c-0.144 0.057-0.218 0.089-0.291 0.121l0.068-0.027c-0.194-0.079-0.387-0.16-0.583-0.232-2.211-0.93-4.206-2.364-5.802-4.153-1.262-1.394-2.286-2.987-3.147-4.655-0.052-0.118-0.1-0.213-0.152-0.304l0.009 0.017-0.069-0.143-0.074-0.143c-0.195-0.427-0.397-0.853-0.571-1.29-0.054-0.153-0.102-0.27-0.155-0.385l0.012 0.029c-0.102-0.26-0.185-0.527-0.291-0.785-0.261-0.758-0.495-1.523-0.712-2.293-0.094-0.362-0.19-0.724-0.283-1.087-0.077-0.305-0.133-0.616-0.218-0.919-0.126-0.597-0.228-1.201-0.362-1.794-0.011-0.145-0.019-0.29-0.070-0.427-0.039-0.312-0.061-0.632-0.147-0.934-0.015-0.17 0.005-0.348-0.070-0.506-0.016-0.213 0-0.43-0.072-0.634-0.024-0.216 0.008-0.442-0.072-0.649-0.009-0.184-0.017-0.368-0.021-0.552 0.923-0.535 1.903-0.96 2.868-1.413 1.458-0.634 2.938-1.221 4.457-1.695 1.48-0.466 2.991-0.828 4.507-1.156zM12.548 6.46c0.096 0.348 0.29 0.657 0.493 0.951 0.601 0.914 1.45 1.62 2.295 2.298-0.543 0.004-0.989-0.349-1.416-0.639-0.203 0.165-0.429 0.303-0.672 0.399-0.999 0.406-2.090 0.468-3.128 0.725-0.051 0.010-0.046 0.058-0.044 0.098l0.1-0.070c0.563 0.018 1.121 0.117 1.669 0.243-1.021 0.027-2.039 0.209-3.006 0.535-0.992 0.348-1.956 0.86-2.693 1.621 0.354-0.131 0.694-0.299 1.059-0.397-0.45 0.44-0.913 0.869-1.304 1.363-0.637 0.803-1.258 1.721-1.246 2.789 0.301-0.289 0.57-0.623 0.936-0.836-0.44 0.99-0.8 2.019-1.004 3.085-0.094 0.585-0.147 1.242 0.193 1.763 0.035-0.22 0.023-0.465 0.178-0.644 0.481 1.25 1.196 2.447 2.244 3.303-0.218-0.353-0.456-0.693-0.636-1.067-0.706-1.351-0.941-2.944-0.628-4.438 0.26-1.249 0.782-2.469 1.639-3.427 0.838-0.947 2.015-1.561 3.252-1.791 1.269-0.239 2.6-0.175 3.839 0.193 0.048-0.265 0.12-0.541 0.312-0.742 0.234-0.263 0.623-0.324 0.954-0.251-0.362 0.172-0.831 0.324-0.947 0.759-0.168 0.8 0.928 1.443 1.577 0.996 0.26-0.158 0.588-0.134 0.848 0.011 0.138-0.051 0.28-0.16 0.432-0.086 0.26 0.105 0.543 0.168 0.783 0.315 0.011 0.032 0.034 0.097 0.044 0.13-0.152 0.264-0.445 0.392-0.7 0.535 0.45-0.036 0.893-0.23 1.347-0.142 0.261 0.082 0.15 0.389 0.098 0.578 0.24-0.085 0.465-0.238 0.585-0.468 0.15-0.296 0.144-0.642 0.11-0.964-0.069 0.071-0.136 0.146-0.2 0.224l-0.005 0.006c0.007-0.215 0.002-0.436-0.105-0.629 0.021 0.292-0.117 0.555-0.383 0.681-0.206-0.351-0.434-0.691-0.707-0.993-0.010 0.112-0.018 0.223-0.024 0.336-0.099-0.11-0.193-0.248-0.345-0.284-0.236-0.051-0.495 0.041-0.714-0.084-0.128-0.067-0.299-0.2-0.21-0.364 0.144-0.187 0.389-0.232 0.601-0.299 0.050 0.147 0.102 0.293 0.154 0.44 0.329-0.212 0.683-0.478 1.099-0.413 0.098 0.021 0.264 0.046 0.236 0.186-0.049 0.182-0.205 0.305-0.312 0.451 0.353-0.067 0.604-0.337 0.871-0.555 0.13 0.27 0.16 0.568 0.173 0.864 0.349-0.369 0.286-0.915 0.294-1.381 0.301 0.135 0.523 0.38 0.739 0.619-0.168-0.371-0.458-0.693-0.828-0.871-0.189-0.077-0.262-0.278-0.372-0.432-0.168 0.044-0.327 0.145-0.503 0.141-0.188-0.024-0.263-0.213-0.317-0.367-0.228 0.043-0.501 0.047-0.664-0.147-0.218-0.213-0.236-0.531-0.336-0.801-0.19-0.166-0.439-0.264-0.688-0.286-0.298-0.031-0.564 0.161-0.861 0.136-0.373-0.027-0.728-0.158-1.063-0.317-1.074-0.501-2-1.282-2.751-2.192-0.109-0.135-0.209-0.279-0.341-0.393zM11.662 7.78c0.412 0.518 0.848 1.044 1.408 1.407 0.241 0.161 0.462-0.095 0.636-0.235-0.719-0.325-1.351-0.804-2.044-1.172zM3.449 10.951c0.213 0.054 0.463 0.045 0.639 0.196 0.122 0.083 0.009 0.208-0.027 0.306-0.174 0.301-0.115 0.675 0.009 0.983 0.105 0.299 0.431 0.508 0.373 0.857-0.246-0.056-0.46-0.199-0.664-0.341-0.196-0.145-0.177-0.424-0.332-0.598-0.329-0.372-0.912-0.495-1.355-0.259 0.268 0.024 0.578-0.011 0.801 0.17 0.21 0.184 0.185 0.488 0.22 0.739 0.075 0.151 0.296 0.105 0.408 0.217 0.137 0.146 0.23 0.334 0.395 0.454 0.283 0.198 0.672 0.18 0.931 0.418 0.135 0.166 0.042 0.397 0.046 0.591 0.271-0.649 0.732-1.185 1.216-1.684-0.248 0.106-0.44 0.317-0.713 0.372-0.109-0.252-0.155-0.555-0.028-0.808 0.070-0.177 0.31-0.049 0.422-0.171 0.169-0.159 0.143-0.44 0.038-0.627-0.178-0.278-0.461-0.468-0.738-0.636 0.108 0.138 0.241 0.256 0.346 0.397 0.092 0.129 0.127 0.338-0.029 0.433-0.115-0.070-0.242-0.108-0.376-0.114-0.2 0.365-0.13 0.788-0.156 1.185-0.232-0.361-0.431-0.78-0.404-1.22 0.057-0.006 0.17-0.016 0.226-0.022-0.016-0.592-0.697-1.036-1.249-0.836zM9.951 12.983c-1.068 0.5-2 1.3-2.626 2.302-0.836 1.332-1.151 2.963-0.929 4.516 0.178 1.196 0.56 2.368 1.163 3.419 0.334-0.508 0.336-1.157 0.642-1.676 0.349-0.345 0.886-0.339 1.336-0.455 0.109-0.038 0.294-0.040 0.289-0.194-0.985-0.87-1.839-2.040-1.912-3.395 0.399 1.024 1.035 2.008 2.002 2.574 0.479 0.27 1.007 0.518 1.57 0.5-0.337-0.094-0.675-0.198-0.974-0.385-0.776-0.46-1.304-1.229-1.706-2.018-0.102-0.221-0.329-0.446-0.222-0.706 0.082-0.168 0.306-0.128 0.451-0.083 1.34 0.493 2.807 0.696 4.222 0.456 1.043-0.194 2.077-0.607 2.864-1.336-0.648 0.319-1.296 0.651-1.995 0.85-1.016 0.294-2.13 0.45-3.152 0.097-0.411-0.136-0.809-0.323-1.161-0.576-0.098-0.069-0.216-0.229-0.089-0.329 0.188-0.156 0.45-0.168 0.682-0.191 1-0.032 2.002-0.14 2.971-0.394 1.010-0.271 2.013-0.697 2.771-1.436 0.22-0.236 0.457-0.488 0.528-0.814-0.277 0.215-0.478 0.515-0.772 0.712-1.068 0.776-2.388 1.101-3.675 1.282-0.672 0.084-1.378 0.17-2.029-0.072-0.382-0.134-0.766-0.375-0.892-0.783-0.185 0.218-0.331 0.489-0.592 0.626-0.119 0.062-0.153-0.094-0.158-0.178-0.047-0.274 0.139-0.498 0.281-0.709 0.42-0.575 0.8-1.187 1.33-1.672-0.089 0.023-0.161 0.047-0.232 0.075l0.014-0.005zM16.173 15.549c-1.644 0.973-3.614 1.201-5.491 1.116-0.121-0.008-0.372 0.014-0.31 0.198 0.279 0.244 0.679 0.249 1.030 0.274 1.892 0.039 3.871-0.484 5.302-1.771 0.161-0.151 0.352-0.289 0.434-0.503-0.322 0.228-0.618 0.494-0.965 0.686zM15.478 17.509c0.543 0.174 1.108 0.329 1.586 0.653 0.121 0.092 0.291 0.241 0.203 0.411-0.134 0.222-0.396 0.327-0.639 0.376-0.308 0.060-0.589-0.105-0.857-0.227 0.369 0.505 1.006 0.738 1.619 0.665-0.071-0.126-0.115-0.264-0.094-0.408 0.453-0.12 0.99-0.004 1.347 0.306-0.198-0.611-0.636-1.141-1.211-1.43-0.598-0.301-1.29-0.402-1.953-0.346zM9.079 17.694c0.024 0.108 0.023 0.23 0.095 0.322 0.305 0.423 0.75 0.729 1.225 0.933 1.061 0.455 2.279 0.51 3.391 0.226-0.676 0.019-1.356 0.004-2.020-0.132-0.871-0.156-1.768-0.511-2.328-1.227-0.085-0.115-0.236-0.107-0.362-0.122zM15.444 19.193c0.22 0.351 0.609 0.551 1.002 0.646 0.081 0.153 0.259 0.361 0.1 0.523-0.248 0.185-0.594 0.118-0.866 0.029-0.576-0.218-0.924-0.754-1.257-1.238 0.239 0.725 0.777 1.359 1.485 1.661 0.798 0.364 1.731 0.238 2.522-0.078-0.426-0.026-0.889 0.029-1.277-0.185-0.221-0.123-0.228-0.415-0.112-0.614 0.584 0.091 1.165-0.142 1.75-0.047 0.464 0.057 0.982 0.252 1.176 0.715 0.286 0.672 0.125 1.43-0.093 2.099-0.326 0.925-0.735 1.824-1.257 2.656-0.196 0.301-0.397 0.605-0.664 0.848-0.539 0.46-1.189 0.771-1.857 0.992-1.113 0.377-2.326 0.574-3.485 0.301-0.576-0.132-1.095-0.504-1.365-1.035-0.544-1.043-0.614-2.26-0.533-3.412-0.419 0.393-0.939 0.755-1.537 0.753-0.364-0.011-0.794-0.233-0.802-0.642 0.046-0.364 0.367-0.624 0.679-0.773 0.281-0.132 0.622 0.062 0.721 0.339 0.006 0.192-0.223 0.279-0.379 0.318-0.197-0.035-0.311-0.213-0.467-0.319-0.035 0.222-0.011 0.497 0.21 0.616 0.363 0.19 0.841 0.109 1.157-0.14 0.449-0.444 0.538-1.326 0.009-1.743-0.455-0.284-1.020-0.091-1.494 0.042-0.347 0.095-0.538 0.433-0.604 0.765-0.12 0.561-0.313 1.113-0.653 1.58 0.318 0.026 0.677 0.071 0.904 0.32 0.203 0.235 0.175 0.578 0.075 0.851-0.094 0.252-0.133 0.543 0.008 0.787 0.283 0.515 0.956 0.615 1.268 1.103 0.13 0.23 0.119 0.509 0.222 0.75 0.079 0.167 0.258 0.259 0.434 0.287 0.378 0.069 0.778 0.071 1.128 0.247 0.344 0.176 0.38 0.678 0.77 0.797 0.306 0.079 0.588-0.13 0.889-0.16 0.334-0.092 0.679-0.026 1 0.082 0.394 0.131 0.857 0.125 1.201-0.13 0.438-0.326 0.833-0.72 1.335-0.952 0.519-0.263 1.132-0.284 1.631-0.591 0.278-0.168 0.402-0.488 0.467-0.79 0.137-0.647 0.306-1.302 0.664-1.866 0.188-0.304 0.502-0.518 0.642-0.853 0.241-0.569 0.239-1.199 0.388-1.791 0.079-0.349 0.404-0.626 0.341-1.006-0.077-0.314-0.231-0.606-0.382-0.89-0.168-0.31-0.469-0.554-0.828-0.591-0.771-0.064-1.539 0.077-2.303 0.152-0.541 0.043-1.134-0.032-1.567-0.385-0.351-0.279-0.505-0.722-0.571-1.15-0.098 0.374-0.029 0.793 0.175 1.121zM20.784 20.151c-0.016 0.11 0.029 0.16 0.135 0.15 0.157-0.040 0.21-0.204 0.266-0.337-0.137 0.055-0.281 0.099-0.401 0.187zM20.718 22.016c0.004 0.050 0.011 0.151 0.016 0.202 0.261 0.123 0.533-0.067 0.709-0.251-0.241 0.032-0.493-0.040-0.725 0.049zM11.759 22.731c-0.248 0.206-0.17 0.642 0.145 0.735 0.021 0.314-0.139 0.625-0.389 0.81-0.095 0.077-0.268 0.074-0.299-0.066-0.052-0.219-0.048-0.463-0.217-0.634-0.067 0.732 0.033 1.479 0.266 2.176 0.018-0.177 0.005-0.431 0.214-0.496 0.39-0.090 0.756 0.165 1.146 0.123 0.223-0.022 0.415-0.154 0.632-0.203 0.162-0.022 0.32 0.077 0.482 0.034 0.179-0.212 0.303-0.52 0.602-0.585 0.303-0.059 0.558 0.155 0.813 0.279-0.249-0.443-0.826-0.643-1.306-0.513-0.265 0.054-0.392 0.352-0.663 0.395-0.253 0.039-0.511 0.010-0.764-0.005-0.053-0.182 0.145-0.311 0.291-0.37 0.405-0.155 0.793-0.438 0.944-0.859 0.073-0.173 0.034-0.369 0.097-0.543 0.251-0.148 0.523 0.051 0.772 0.107-0.153-0.219-0.432-0.304-0.688-0.296-0.336-0.008-0.712 0.1-0.898 0.401 0.052 0.069 0.235 0.107 0.173 0.224-0.226 0.38-0.628 0.606-0.982 0.85 0.13-0.387 0.478-0.697 0.47-1.128-0.054-0.205-0.355-0.102-0.473-0.263 0.135-0.327 0.496-0.4 0.795-0.501-0.402 0.018-0.836 0.074-1.163 0.328zM7.728 24.291c-0.536 0.356-0.792 1.002-0.841 1.623 0.234-0.503 0.821-0.608 1.264-0.849 0.205-0.092 0.214-0.343 0.188-0.536-0.011-0.283-0.407-0.405-0.611-0.238zM19.421 25.043c-0.099 0.129 0.014 0.289 0.149 0.327 0.316 0.099 0.651-0.035 0.921-0.202-0.217 0-0.414-0.079-0.599-0.183-0.145-0.085-0.382-0.124-0.471 0.058zM9.357 26.845c-0.527 0.259-0.864 0.828-0.897 1.408 0.206-0.382 0.65-0.49 1.021-0.646 0.165-0.057 0.332-0.173 0.324-0.369 0.061-0.256-0.206-0.477-0.447-0.393zM16.587 28.381c0.158 0.342 0.455 0.638 0.815 0.764-0.117-0.19-0.213-0.396-0.232-0.621-0.031-0.195-0.015-0.483-0.259-0.538-0.232-0.069-0.422 0.18-0.324 0.395zM10.935 28.419c-0.318 0.392-0.417 0.921-0.383 1.415 0.118-0.469 0.618-0.629 0.962-0.896 0.248-0.152 0.197-0.568-0.044-0.7-0.195-0.046-0.409 0.024-0.534 0.18zM13.504 29.005c-0.351 0.363-0.39 0.927-0.309 1.401 0.102-0.43 0.529-0.622 0.778-0.947 0.188-0.284-0.195-0.637-0.47-0.454z"></path>
<path fill="#ed1c24" style="fill: var(--color4, #ed1c24)" d="M17.277 9.914c0.228 0.070 0.468 0.093 0.7 0.15 0.135 0.103 0.155 0.286 0.21 0.435-0.418 0.053-0.689-0.29-0.91-0.586z"></path>
</symbol>
<symbol id="icon-intel" viewBox="0 0 32 32">
<path fill="#0071c5" style="fill: var(--color5, #0071c5)" d="M31.225 12.151c-1.443-7.046-15.124-7.493-23.942-2.125v0.593c8.808-4.53 21.303-4.5 22.441 1.989 0.381 2.147-0.828 4.384-2.989 5.673v1.684c2.599-0.953 5.264-4.037 4.49-7.814zM15.197 24.484c-6.083 0.561-12.424-0.323-13.313-5.077-0.435-2.344 0.634-4.83 2.051-6.375v-0.825c-2.551 2.237-3.935 5.069-3.137 8.414 1.017 4.291 6.459 6.721 14.765 5.914 3.288-0.319 7.589-1.377 10.581-3.020v-2.333c-2.716 1.618-7.206 2.955-10.947 3.302z"></path>
<path fill="#0071c5" style="fill: var(--color5, #0071c5)" d="M25.651 11.126h-1.595v7.104c0 0.833 0.402 1.557 1.595 1.673zM6.657 13.72h-1.598l-0.002 4.641c0 0.835 0.404 1.559 1.6 1.673zM5.059 12.854h1.594v-1.513h-1.594zM16.21 19.961c-1.29 0-1.836-0.898-1.836-1.783v-6.163h1.58v1.703h1.191v1.278h-1.191v3.083c0 0.362 0.171 0.561 0.547 0.561h0.643v1.319zM20.405 14.922c-0.541 0-0.956 0.279-1.133 0.654-0.102 0.226-0.141 0.402-0.151 0.68h2.435c-0.030-0.68-0.338-1.334-1.152-1.334zM19.121 17.334c0 0.808 0.505 1.405 1.4 1.405 0.702 0 1.047-0.195 1.453-0.597l0.978 0.932c-0.627 0.619-1.284 0.994-2.442 0.994-1.514 0-2.963-0.825-2.963-3.233 0-2.059 1.268-3.222 2.928-3.222 1.689 0 2.659 1.362 2.659 3.151v0.57h-4.013zM10.951 14.997c0.464 0 0.657 0.229 0.657 0.601v4.373h1.581v-4.382c0-0.887-0.472-1.866-1.862-1.866l-3.266-0.002v6.25h1.581v-4.973z"></path>
</symbol>
<symbol id="icon-amd" viewBox="0 0 32 32">
<path d="M7.64 19.256h-1.744l-0.536-1.288h-2.912l-0.488 1.288h-1.72l2.624-6.512h1.88l2.896 6.512zM3.832 14.304l-0.952 2.528h2l-1.048-2.528zM13.992 12.744h1.416v6.512h-1.624v-4.072l-1.76 2.040h-0.248l-1.76-2.040v4.072h-1.624v-6.512h1.416l2.088 2.416 2.096-2.416zM19.52 12.744c2.376 0 3.6 1.48 3.6 3.264 0 1.872-1.184 3.248-3.784 3.248h-2.696v-6.512h2.88zM18.272 18.064h1.064c1.632 0 2.12-1.112 2.12-2.064 0-1.12-0.6-2.064-2.136-2.064h-1.040l-0.008 4.128zM26.352 14.288l-2.048-2.048h7.456v7.456l-2.048-2.048v-3.36h-3.36zM26.352 14.696l-2.112 2.112v2.952h2.952l2.112-2.112h-2.952v-2.952z"></path>
</symbol>
</defs>
</svg>
